<?xml version="1.0" encoding="UTF-8"?>
<svg xmlns="http://www.w3.org/2000/svg" xmlns:xlink="http://www.w3.org/1999/xlink" width="30px" height="34px" viewBox="0 0 30 34" version="1.1">
<g id="surface1">
<path style=" stroke:none;fill-rule:nonzero;fill:rgb(0%,0%,0%);fill-opacity:1;" d="M 27.855469 2.125 L 2.136719 2.125 C 0.957031 2.125 0 3.085938 0 4.269531 L 0 29.730469 C 0 30.914062 0.957031 31.875 2.136719 31.875 L 27.855469 31.875 C 29.035156 31.875 30 30.914062 30 29.730469 L 30 4.269531 C 30 3.085938 29.035156 2.125 27.855469 2.125 Z M 9.066406 27.625 L 4.621094 27.625 L 4.621094 13.425781 L 9.074219 13.425781 L 9.074219 27.625 Z M 6.84375 11.488281 C 5.417969 11.488281 4.265625 10.339844 4.265625 8.929688 C 4.265625 7.523438 5.417969 6.375 6.84375 6.375 C 8.261719 6.375 9.421875 7.523438 9.421875 8.929688 C 9.421875 10.347656 8.269531 11.488281 6.84375 11.488281 Z M 25.734375 27.625 L 21.289062 27.625 L 21.289062 20.71875 C 21.289062 19.070312 21.253906 16.953125 18.976562 16.953125 C 16.660156 16.953125 16.304688 18.746094 16.304688 20.597656 L 16.304688 27.625 L 11.859375 27.625 L 11.859375 13.425781 L 16.125 13.425781 L 16.125 15.367188 L 16.183594 15.367188 C 16.78125 14.25 18.234375 13.074219 20.398438 13.074219 C 24.898438 13.074219 25.734375 16.015625 25.734375 19.84375 Z M 25.734375 27.625 "/>
</g>
</svg>
